<?xml version="1.0" encoding="UTF-8" standalone="no"?>
<!DOCTYPE svg PUBLIC "-//W3C//DTD SVG 1.1//EN" "http://www.w3.org/Graphics/SVG/1.1/DTD/svg11.dtd">
<svg width="100%" height="100%" viewBox="0 0 2236 2236" version="1.1" xmlns="http://www.w3.org/2000/svg" xmlns:xlink="http://www.w3.org/1999/xlink" xml:space="preserve" xmlns:serif="http://www.serif.com/" style="fill-rule:evenodd;clip-rule:evenodd;stroke-linejoin:round;stroke-miterlimit:1.41421;">
    <g transform="matrix(1,0,0,1,7.92196,7.92196)">
        <g transform="matrix(0.484624,-0.484624,0.484624,0.484624,-237.913,952.956)">
            <path d="M2347.88,2671.94L109.42,2671.94L109.42,433.473L2347.88,433.473L2347.88,2671.94ZM413.395,737.449L413.395,2367.96L2043.91,2367.96L2043.91,737.449L413.395,737.449Z"/>
        </g>
        <g transform="matrix(0.52227,-2.70428e-32,-2.77306e-32,0.52227,447.9,323.789)">
            <rect x="105.732" y="691.606" width="2321.84" height="398.9"/>
        </g>
        <g transform="matrix(0.263779,-1.43496e-32,-2.77306e-32,0.52227,780.241,950.512)">
            <rect x="-89.72" y="691.606" width="2712.74" height="398.9"/>
        </g>
        <g transform="matrix(1.94409e-17,-0.317494,0.52227,3.19798e-17,903.442,1506.64)">
            <rect x="-22.907" y="691.606" width="2579.12" height="398.9"/>
        </g>
        <g transform="matrix(6.71195e-18,-0.109614,0.52227,3.19798e-17,394.906,1443.77)">
            <rect x="-645.119" y="691.606" width="3823.54" height="398.9"/>
        </g>
        <g transform="matrix(1.2312e-17,-0.201069,0.52227,3.19798e-17,649.932,1237.17)">
            <rect x="-212.881" y="691.606" width="2959.06" height="398.9"/>
        </g>
    </g>
</svg>
