<?xml version="1.0" standalone="no"?><!DOCTYPE svg PUBLIC "-//W3C//DTD SVG 1.1//EN" "http://www.w3.org/Graphics/SVG/1.1/DTD/svg11.dtd"><svg width="100%" height="100%" viewBox="0 0 533 533" version="1.1" xmlns="http://www.w3.org/2000/svg" xmlns:xlink="http://www.w3.org/1999/xlink" xml:space="preserve" style="fill-rule:evenodd;clip-rule:evenodd;stroke-linejoin:round;stroke-miterlimit:1.41421;"><path d="M526.755,266.4l-260.355,260.355l-260.355,-260.355l260.355,-260.355l260.355,260.355ZM76.755,266.4l189.645,189.645l189.645,-189.645l-189.645,-189.645l-189.645,189.645Z" style="fill:#fff;"/><rect x="120.749" y="164.399" width="291.03" height="50" style="fill:#fff;"/><rect x="181.578" y="314.812" width="171.735" height="50" style="fill:#fff;"/><path d="M353.515,363.339l-50,0l0,-196.525l50,0l0,196.525Z" style="fill:#fff;"/><path d="M231.467,363.477l-50,0l0,-100.588l50,0l0,100.588Z" style="fill:#fff;"/><path d="M292.673,307.194l-50,0l0,-142.794l50,0l0,142.794Z" style="fill:#fff;"/></svg>
